<svg width="86" height="40" viewBox="0 0 86 40" fill="none" xmlns="http://www.w3.org/2000/svg">
<g clip-path="url(#clip0_2_18)">
<path fill-rule="evenodd" clip-rule="evenodd" d="M16.9534 0.450645H16.9656H17.002C24.6153 1.36617 30.3556 7.87247 30.3556 15.5751C30.3556 23.1679 24.822 29.4667 17.5858 30.6264V31.3954H12.7698V30.6264C5.53357 29.4667 0 23.1679 0 15.5751C0 9.64251 3.4296 4.25923 8.78075 1.75679L9.37668 1.47603L11.4198 5.90718L10.8239 6.18794C7.19973 7.88468 4.86468 11.5346 4.86468 15.5751C4.86468 20.3969 8.17268 24.5473 12.7698 25.6459V0.523887L13.3657 0.450645C13.9616 0.377403 14.5697 0.340782 15.1778 0.340782C15.7737 0.340782 16.3696 0.377403 16.9534 0.450645ZM17.5858 25.6459C22.1829 24.5473 25.4909 20.3969 25.4909 15.5751C25.4909 10.7534 22.1829 6.60297 17.5858 5.50434V25.6459Z" fill="#2D2534"/>
<path d="M41.1308 8.87336H48.4887V4.97933H36.8742V32.1765H48.4887V28.2947H41.1308V20.3357H47.3941L44.4997 17.9432H44.5118L44.4997 17.9188L46.5671 17.9066L45.582 16.4417H41.1308V8.87336ZM19.6412 33.9832H12.9035L13.0738 35.0208H19.4587L19.1546 36.8152H13.3778L13.5481 37.865H18.9844L18.6803 39.6595H13.8521H11.6753L11.201 36.8152L10.8969 35.0208L10.4226 32.1765H12.5995H19.933L19.6412 33.9832ZM49.0603 20.3357H51.1156V32.1765H62.73V28.2947H55.3843V20.3357H61.222V16.4417H55.3843V8.87336H62.73V4.97933H51.1156V16.4417H47.2239L50.1913 18.8953L48.0995 18.9075L49.0603 20.3357ZM65.3691 32.1765H72.1064C76.3634 32.1765 78.4549 29.8084 78.4549 25.4627V11.7054C78.4549 7.34746 76.3634 4.97933 72.1064 4.97933H65.3691V32.1765ZM72.0217 8.87336C73.3837 8.87336 74.1986 9.56916 74.1986 11.5101V25.658C74.1986 27.5989 73.3837 28.2947 72.0217 28.2947H69.6258V8.87336H72.0217ZM81.1675 32.1765H85.4237V4.97933H81.1675V32.1765Z" fill="#2D2534"/>
</g>
<defs>
<clipPath id="clip0_2_18">
<rect width="85.4237" height="40" fill="white"/>
</clipPath>
</defs>
</svg>
